<svg width="1080" height="1080" viewBox="0 0 1080 1080" fill="none" xmlns="http://www.w3.org/2000/svg">
<g clip-path="url(#clip0_1_2)">
<path d="M403.924 885.967C403.924 885.967 720.997 761.133 812.875 659.127C826.312 644.232 836.974 626.545 844.254 607.076C851.534 587.606 855.289 566.735 855.304 545.654C855.319 524.574 851.593 503.696 844.341 484.214C837.089 464.732 826.451 447.026 813.036 432.108C799.62 417.19 783.689 405.352 766.153 397.27C748.617 389.187 729.818 385.019 710.831 385.002C691.844 384.986 673.039 389.121 655.492 397.173C637.944 405.225 621.997 417.035 608.56 431.93C516.361 534.293 403.924 885.967 403.924 885.967ZM608.56 611.333L542.704 538.573L608.56 611.333ZM823.798 647L744.77 559.26L823.798 647Z" fill="#FF6900"/>
<path d="M608.56 611.333L542.704 538.573M823.798 647L744.77 559.26M403.924 885.967C403.924 885.967 720.998 761.133 812.875 659.127C826.312 644.232 836.974 626.545 844.254 607.076C851.534 587.606 855.289 566.735 855.304 545.654C855.318 524.574 851.593 503.696 844.341 484.214C837.089 464.732 826.451 447.026 813.036 432.108C799.62 417.19 783.689 405.352 766.153 397.27C748.617 389.187 729.818 385.019 710.831 385.002C691.844 384.986 673.039 389.121 655.492 397.173C637.944 405.225 621.997 417.035 608.56 431.93C516.361 534.293 403.924 885.967 403.924 885.967Z" stroke="black" stroke-width="5" stroke-linecap="round" stroke-linejoin="round"/>
<path d="M1037.75 433C1037.75 433 995.024 361.667 925.312 361.667C872.627 361.667 812.875 433 812.875 433C812.875 433 855.601 504.333 925.312 504.333C995.024 504.333 1037.75 433 1037.75 433Z" fill="#37684E" stroke="black" stroke-width="5" stroke-linecap="round" stroke-linejoin="round"/>
<path d="M812.875 183.333C812.875 183.333 748.625 230.77 748.625 308.167C748.625 385.563 812.875 433 812.875 433C812.875 433 877.125 367.373 877.125 308.167C877.125 230.77 812.875 183.333 812.875 183.333Z" fill="#37684E" stroke="black" stroke-width="5" stroke-linecap="round" stroke-linejoin="round"/>
<path d="M675.076 885.967C675.076 885.967 358.003 761.133 266.125 659.127C252.688 644.232 242.026 626.545 234.746 607.076C227.466 587.606 223.711 566.735 223.696 545.654C223.681 524.574 227.407 503.696 234.659 484.214C241.911 464.732 252.549 447.026 265.964 432.108C279.38 417.19 295.311 405.352 312.847 397.27C330.383 389.187 349.182 385.019 368.169 385.002C387.156 384.986 405.961 389.121 423.508 397.173C441.056 405.225 457.003 417.035 470.44 431.93C562.639 534.293 675.076 885.967 675.076 885.967ZM470.44 611.333L536.296 538.573L470.44 611.333ZM255.202 647L334.23 559.26L255.202 647Z" fill="#FF6900"/>
<path d="M470.44 611.333L536.296 538.573M255.202 647L334.23 559.26M675.076 885.967C675.076 885.967 358.002 761.133 266.125 659.127C252.688 644.232 242.026 626.545 234.746 607.076C227.466 587.606 223.711 566.735 223.696 545.654C223.682 524.574 227.407 503.696 234.659 484.214C241.911 464.732 252.549 447.026 265.964 432.108C279.38 417.19 295.311 405.352 312.847 397.27C330.383 389.187 349.182 385.019 368.169 385.002C387.156 384.986 405.961 389.121 423.508 397.173C441.056 405.225 457.003 417.035 470.44 431.93C562.639 534.293 675.076 885.967 675.076 885.967Z" stroke="black" stroke-width="5" stroke-linecap="round" stroke-linejoin="round"/>
<path d="M41.25 433C41.25 433 83.9762 361.667 153.688 361.667C206.373 361.667 266.125 433 266.125 433C266.125 433 223.399 504.333 153.688 504.333C83.9762 504.333 41.25 433 41.25 433Z" fill="#37684E" stroke="black" stroke-width="5" stroke-linecap="round" stroke-linejoin="round"/>
<path d="M266.125 183.333C266.125 183.333 330.375 230.77 330.375 308.167C330.375 385.563 266.125 433 266.125 433C266.125 433 201.875 367.373 201.875 308.167C201.875 230.77 266.125 183.333 266.125 183.333Z" fill="#37684E" stroke="black" stroke-width="5" stroke-linecap="round" stroke-linejoin="round"/>
</g>
<defs>
<clipPath id="clip0_1_2">
<rect width="1080" height="1080" fill="white"/>
</clipPath>
</defs>
</svg>
